<svg width="16" height="16" viewBox="0 0 16 16" fill="none" xmlns="http://www.w3.org/2000/svg">
<path d="M13.3334 6.66667H11.3334V5.90667C12.48 5.60667 13.3334 4.57333 13.3334 3.33333H11.3334V2.66667C11.3334 2.3 11.0334 2 10.6667 2H5.33335C4.96669 2 4.66669 2.3 4.66669 2.66667V3.33333H2.66669C2.66669 4.57333 3.52002 5.60667 4.66669 5.90667V6.66667H2.66669C2.66669 7.90667 3.52002 8.94 4.66669 9.24V10H2.66669C2.66669 11.24 3.52002 12.2733 4.66669 12.5733V13.3333C4.66669 13.7 4.96669 14 5.33335 14H10.6667C11.0334 14 11.3334 13.7 11.3334 13.3333V12.5733C12.48 12.2733 13.3334 11.24 13.3334 10H11.3334V9.24C12.48 8.94 13.3334 7.90667 13.3334 6.66667ZM10 12.6667H6.00002V3.33333H10V12.6667ZM8.00002 12C8.55335 12 9.00002 11.5533 9.00002 11C9.00002 10.4467 8.55335 10 8.00002 10C7.44669 10 7.00002 10.4467 7.00002 11C7.00002 11.5533 7.44669 12 8.00002 12ZM8.00002 9C8.55335 9 9.00002 8.55333 9.00002 8C9.00002 7.44667 8.55335 7 8.00002 7C7.44669 7 7.00002 7.44667 7.00002 8C7.00002 8.55333 7.44669 9 8.00002 9ZM8.00002 6C8.55335 6 9.00002 5.55333 9.00002 5C9.00002 4.44667 8.55335 4 8.00002 4C7.44669 4 7.00002 4.44667 7.00002 5C7.00002 5.55333 7.44669 6 8.00002 6Z" fill="#FF8A8A"/>
</svg>
