<svg width="16" height="16" viewBox="0 0 16 16" fill="none" xmlns="http://www.w3.org/2000/svg">
<path d="M13.3333 6.66667H11.3333V5.90667C12.48 5.60667 13.3333 4.57333 13.3333 3.33333H11.3333V2.66667C11.3333 2.3 11.0333 2 10.6667 2H5.33332C4.96666 2 4.66666 2.3 4.66666 2.66667V3.33333H2.66666C2.66666 4.57333 3.51999 5.60667 4.66666 5.90667V6.66667H2.66666C2.66666 7.90667 3.51999 8.94 4.66666 9.24V10H2.66666C2.66666 11.24 3.51999 12.2733 4.66666 12.5733V13.3333C4.66666 13.7 4.96666 14 5.33332 14H10.6667C11.0333 14 11.3333 13.7 11.3333 13.3333V12.5733C12.48 12.2733 13.3333 11.24 13.3333 10H11.3333V9.24C12.48 8.94 13.3333 7.90667 13.3333 6.66667ZM9.99999 12.6667H5.99999V3.33333H9.99999V12.6667ZM7.99999 12C8.55332 12 8.99999 11.5533 8.99999 11C8.99999 10.4467 8.55332 10 7.99999 10C7.44666 10 6.99999 10.4467 6.99999 11C6.99999 11.5533 7.44666 12 7.99999 12ZM7.99999 9C8.55332 9 8.99999 8.55333 8.99999 8C8.99999 7.44667 8.55332 7 7.99999 7C7.44666 7 6.99999 7.44667 6.99999 8C6.99999 8.55333 7.44666 9 7.99999 9ZM7.99999 6C8.55332 6 8.99999 5.55333 8.99999 5C8.99999 4.44667 8.55332 4 7.99999 4C7.44666 4 6.99999 4.44667 6.99999 5C6.99999 5.55333 7.44666 6 7.99999 6Z" fill="#63D489"/>
</svg>
